<svg xmlns="http://www.w3.org/2000/svg" viewBox="0 0 244.56 25.41"><defs><style>.cls-1{fill:#fff;}.cls-2{fill:none;}</style></defs><title>Asset 5</title><g id="Layer_2" data-name="Layer 2"><g id="Layer_1-2" data-name="Layer 1"><path class="cls-1" d="M173.71,9.81a1.46,1.46,0,0,0,1.41-1,.37.37,0,0,0-.1-.34,5.13,5.13,0,0,0-1-.59,1.15,1.15,0,0,0-1.37.42.87.87,0,0,0-.1.74A1.27,1.27,0,0,0,173.71,9.81Z"/><path class="cls-1" d="M48.57,0a1.2,1.2,0,0,1,.26,1.76L47,4.62c-.1.17-.18.36-.3.59a2.46,2.46,0,0,0,2-.62.58.58,0,0,1,.68-.17l.73.22c.61.19.84.5.69,1.11a3.57,3.57,0,0,1-.62,1.15.73.73,0,0,1-.63.22,3.39,3.39,0,0,0-2,0,15.61,15.61,0,0,0-1.66.3,1.48,1.48,0,0,0-1,.92,3.79,3.79,0,0,1-.53.75c-.13.16-.32.27-.45.43a37.26,37.26,0,0,0-4.71,7.08c-.12.27-.22.56-.4,1,1.09-.25,2-.46,3-.69.52-.13,1-.3,1.52-.46a13.09,13.09,0,0,0,4-1.56.75.75,0,0,1,.47-.15c.7.08,1.4.21,2.1.29a3.13,3.13,0,0,0,.91-.09c1.06-.2,2.12-.4,3.16-.65a14,14,0,0,0,1.64-.59c.3-.11.59-.28.9-.36a1,1,0,0,1,1.09.4.8.8,0,0,1,0,1,15,15,0,0,1-1.17,1.49A5.89,5.89,0,0,0,55,18.18c-.15.43-.45.8-.63,1.28a4,4,0,0,0,.54-.29c1.38-1.06,2.77-2.12,4.14-3.2.56-.44,1.09-.92,1.92-.63a2.25,2.25,0,0,1-.15,1.87c-.59,1-1,2.07-1.54,3.11l.1.12,1-.67A24.49,24.49,0,0,1,63,18.09c1.53-.77,3.12-1.42,4.68-2.1a3.11,3.11,0,0,1,.89-.25.93.93,0,0,1,1,1.32,3.58,3.58,0,0,1-.86,1.05,19.65,19.65,0,0,0-3.37,3.51,2.42,2.42,0,0,0-.17.29,3.65,3.65,0,0,0,.62-.21c1.11-.73,2.23-1.45,3.31-2.22a20.5,20.5,0,0,0,2.41-1.92,33.42,33.42,0,0,0,2.63-2.94,24.15,24.15,0,0,0,1.57-2.4c.21-.34.3-.77.53-1.11Q77.87,8.56,79.59,6a1.52,1.52,0,0,1,.63-.58,1,1,0,0,1,.84,0,1,1,0,0,1,.32.83,3,3,0,0,1-.52,1c-1.93,3-3.88,6-5.82,9a.34.34,0,0,0-.06.27c.28-.18.56-.36.83-.56.72-.54,1.43-1.11,2.16-1.65a3.35,3.35,0,0,1,.72-.39c1-.37,1.6.06,1.65,1.11a4.69,4.69,0,0,1-.44,2.33,9.55,9.55,0,0,0-.47,1.64,3,3,0,0,0,.48,0l3.39-.62a9.76,9.76,0,0,1,1.61-.23c1.56,0,3.13.17,4.67,0a14.12,14.12,0,0,0,5.06-1,22,22,0,0,1,5.18-1.41c.94-.19,1.87-.39,2.81-.6a1.21,1.21,0,0,1,1.32.57,1,1,0,0,1-.21,1.31,7.9,7.9,0,0,1-1,.77,6.17,6.17,0,0,0-1.85,1.82c-.29.48-.69.88-1,1.34a2.37,2.37,0,0,0-.21.69c.58-.15,1-.25,1.49-.38s.59-.3.9-.37c1-.23,1.4-1.08,1.87-1.84a1,1,0,0,0,.07-.59c0-.46,0-.92-.06-1.41a6.51,6.51,0,0,1,1-.18,18.83,18.83,0,0,0,5.35-1.17,6.16,6.16,0,0,0,3.55-2.61c1.27-2,2.7-3.83,4-5.74a2,2,0,0,0,.26-.45,13.06,13.06,0,0,1,2.42-3.77,9.06,9.06,0,0,1,2.76-2.17A1.34,1.34,0,0,1,125,1a1.44,1.44,0,0,1,.4,1.74,16.28,16.28,0,0,1-1.64,2.83A15.81,15.81,0,0,1,120.31,9a22.69,22.69,0,0,0-2.52,2.17,5.7,5.7,0,0,0-1,1.54c-.64,1.27-1.29,2.54-1.8,3.86-.7,1.81-1.27,3.68-1.88,5.53a3.28,3.28,0,0,0-.1.72l1-.26c0-.51,0-1,.09-1.44a1,1,0,0,1,.31-.51c1.44-1.27,2.89-2.53,4.32-3.8a3.46,3.46,0,0,1,2-.94c.67-.07,1.32-.34,2-.47a12.49,12.49,0,0,1,4.27-.19,23.49,23.49,0,0,0,2.66.09,2.2,2.2,0,0,1,.36,0c1.32.4,2.51-.23,3.75-.47s2.55-.53,3.84-.69a8,8,0,0,1,1.64.26c1.56.16,3.09.85,4.7.2a3.45,3.45,0,0,1,1.37-.11,2.62,2.62,0,0,0,1.48-.44c.92-.56,1.87-1.07,2.83-1.56a1.13,1.13,0,0,1,1.61.63,3.85,3.85,0,0,1,.22,2.46,4.27,4.27,0,0,0-.16,1.82c.06.25-.25.6-.39.89a1,1,0,0,0-.15.46,3.63,3.63,0,0,0,.91-.33,12.78,12.78,0,0,0,1.7-1.4c.78-.77,1.47-1.62,2.23-2.42a1.85,1.85,0,0,0,.54-1.58c-.06-.55-.11-1.12.55-1.4a2.08,2.08,0,0,1,2.32,0,2,2,0,0,1,.31.27,1.73,1.73,0,0,0,2,.48c.89-.27,1.76-.56,2.66-.79a4.69,4.69,0,0,1,1,0c.2,0,.39,0,.59,0a15.46,15.46,0,0,1,1.93,0,.81.81,0,0,1,.76.89,1.24,1.24,0,0,1-.87,1.13,3.92,3.92,0,0,0-1.1.5c-1,.73-2,1.51-3,2.28a1.29,1.29,0,0,0-.35.3.56.56,0,0,0-.08.41c0,.07.24.13.35.1A20.41,20.41,0,0,0,167.18,16a25.78,25.78,0,0,0,4.13-2.63A18.37,18.37,0,0,1,174,11.84a1,1,0,0,1,1.38.44,1.13,1.13,0,0,1-.45,1.43,6.22,6.22,0,0,0-2.43,2.37l-.18.4a7.24,7.24,0,0,0,2.9-1.27c.3-.27.65-.5,1-.76a3.47,3.47,0,0,1,2.05-.82,9.23,9.23,0,0,1,3.1-.21c.63.15.77.28.81.92,0,.24,0,.47,0,.8.3-.18.53-.32.77-.44.67-.33,1.35-.65,2-1s1.2-.58,1.77-.92a1.2,1.2,0,0,1,1.93.53.58.58,0,0,0,.93.26c.61-.36,1.18-.77,1.78-1.13a4.65,4.65,0,0,1,1.1-.53,1,1,0,0,1,1.33,1,3.22,3.22,0,0,1-.43,1.92c-.58,1-.45,1.6.68,2a24.77,24.77,0,0,0,3.72,1c1,.19,2,.22,3,.32l3,.29c.9.08,1.81.13,2.71.21.54.05,6.89,0,7.73-.15a36.26,36.26,0,0,1,4.17-.52,28.21,28.21,0,0,1,9.34.51c1.4.38,2.8.76,4.22,1.07.83.18,1.69.22,2.54.32,2,.22,3.94.5,5.92.65a23.2,23.2,0,0,0,2.75-.17,2.79,2.79,0,0,1,1,.09.6.6,0,0,1,.19,1.07,4,4,0,0,1-.63.44,5.69,5.69,0,0,1-4.16.6c-2.55-.42-5.1-.79-7.65-1.2-.51-.08-1-.25-1.49-.37a4.41,4.41,0,0,0-1.1-.23,14.84,14.84,0,0,1-3.73-.8c-1.3-.69-2.53-.37-3.78-.32-1.91.07-3.81.3-5.72.47a3.43,3.43,0,0,0-.56.07,29.09,29.09,0,0,1-7.44.66c-1.44,0-2.89-.25-4.34-.37-1.64-.13-3.28-.24-4.91-.39-.29,0-3.64-.87-4.47-.87a2.51,2.51,0,0,1-1.56-.55,3.66,3.66,0,0,1-1.83-3,.71.71,0,0,0-.06-.25.37.37,0,0,0-.06-.1A6.16,6.16,0,0,0,188.14,17a1.72,1.72,0,0,1-1.77.57c-.6-.15-.78-.72-.89-1.27a5.67,5.67,0,0,1-.08-.59l-.58.31-.67.31a1,1,0,0,0-.28.17c-1,.77-1.89,1.57-2.88,2.31a1.11,1.11,0,0,1-1.43-.05,1.14,1.14,0,0,1-.32-1.35c.14-.39.37-.74.5-1.12.07-.21.12-.53,0-.66a.69.69,0,0,0-.64-.15,6.11,6.11,0,0,0-2.15,1,8.9,8.9,0,0,1-4.83,2.2,2.2,2.2,0,0,1-2.54-1.32l-.08-.15c-1.57.6-3.09,1.2-4.63,1.76a4.6,4.6,0,0,1-3.79-.17,1.54,1.54,0,0,1-.56-2.66c.55-.65,1.16-1.25,1.74-1.88-1,.06-2,.13-2.92.16a1.94,1.94,0,0,0-1.52.71,32.68,32.68,0,0,0-3.12,3.53,4.17,4.17,0,0,1-1.13.94,10,10,0,0,1-3.31,1.58,2.66,2.66,0,0,0-1.12.84c-.82.89-1.56,1.86-2.39,2.75a2.58,2.58,0,0,1-2.3.61,5.39,5.39,0,0,1-.8-.16,1.93,1.93,0,0,1-1.71-2c0-.14.16-.34.3-.45a21.93,21.93,0,0,1,6.07-3.06l.24-.1-.23-.76a4.18,4.18,0,0,1-3.09.79,1.61,1.61,0,0,1-1.73-2c0-.2,0-.4.06-.66-1.17-.11-2.31-.18-3.44-.33a9,9,0,0,1-1.78-.41,3.68,3.68,0,0,0-2.18,0c-1.71.41-3.41.88-5.12,1.3-.38.09-3.17.64-3.32,0l-3.12-.35h-.1c-1.44.38-3,.33-4.28,1.23a2.92,2.92,0,0,0-.77.66,4,4,0,0,1-1.23,1.12,3.94,3.94,0,0,0-1.8,2.51,2.19,2.19,0,0,1-1.28,1.59,11.25,11.25,0,0,1-2.33.73,1.6,1.6,0,0,1-1.8-1.82,15.74,15.74,0,0,1,.86-3.47c.26-.85.51-1.7.79-2.64l-.58.18c-1.63.51-3.26,1-4.89,1.53a1.51,1.51,0,0,0-.56.33c-.73.77-1.38,1.62-2.18,2.32a9.25,9.25,0,0,1-4.37,2.35,2.39,2.39,0,0,1-2.24-1.15,2.24,2.24,0,0,1,.09-1.42c.32-.86.78-1.67,1.18-2.5l.18-.4a11.16,11.16,0,0,0-3.52.8c-2.07.62-4.09,1.48-6.34,1.32-1.46-.1-2.93-.09-4.4-.14a12.69,12.69,0,0,0-3.62.64,17.64,17.64,0,0,1-3,.49c-.86.06-1.31-.47-1.18-1.34a19.66,19.66,0,0,1,.56-2.23c.1-.37.24-.73.36-1.1l-.11-.09a5.8,5.8,0,0,0-.52.34c-1.1.9-2.19,1.81-3.28,2.72a7.21,7.21,0,0,1-.62.47c-.93.6-1.31.53-2-.41a4.33,4.33,0,0,0-.41.3A23.72,23.72,0,0,1,65.09,24a2.66,2.66,0,0,1-2.32,0,1,1,0,0,1-.45-1.36,15,15,0,0,1,1.4-2.3,8,8,0,0,1,1.1-1.07l-.09-.14c-.63.35-1.27.68-1.89,1.05a8,8,0,0,0-.93.72,12,12,0,0,1-2.62,1.81c-.12,0-.24,0-.36,0-1,.1-1.52-.32-1.57-1.37,0-.51,0-1,.07-1.63a12.93,12.93,0,0,1-1.12.88,18.17,18.17,0,0,1-2,1.17,1.56,1.56,0,0,1-1.82-.23A1.72,1.72,0,0,1,52,19.63,10.42,10.42,0,0,1,52.86,18c.31-.56.63-1.1,1-1.77-1.27.3-2.43.53-3.56.86-.26.08-.44.47-.61.74s-.34.72-.57,1c-.48.67-1,1.3-1.51,1.95A4.66,4.66,0,0,1,43,22.43a.79.79,0,0,1-.65-1.05,11.88,11.88,0,0,1,.79-2.13,7.25,7.25,0,0,1,.72-1.05l-.1-.18c-.67.22-1.35.43-2,.67-.34.11-.65.31-1,.43-.65.24-1.31.49-2,.69a3,3,0,0,1-1.14.17c-.6-.08-.89-.55-.91-1.24S36.6,18,36,18.11c-1,.28-2.06.63-3.08,1-.57.18-1.12.44-1.69.6A12.18,12.18,0,0,0,28,21a10.28,10.28,0,0,1-3.5.9c-1.91.4-3.78-.12-5.67-.2a38.09,38.09,0,0,0-6,.14c-4.8.54-7.24.42-8.1.09C2.28,21-.14,19.83,0,19.3s2.59-.74,4.09.19A3.47,3.47,0,0,0,5.28,20c1,.28,1.59,0,3.07,0,.83,0,.77.06,1.79.07,2.09,0,2.6-.25,4.61-.33,1.06,0,2.12.06,3.18.12,1.32.07,2.63.28,3.94.25a14.47,14.47,0,0,0,5.46-1.07c1.42-.62,2.9-1.1,4.37-1.61s2.75-.89,4.12-1.39a2.68,2.68,0,0,0,.89-.66c1-1,1.94-2,2.87-3.08a17.15,17.15,0,0,0,1.16-1.63c.46-.66.92-1.31,1.36-2a4,4,0,0,0,.29-.79c-1.08.2-2.06.41-3,.54a16.63,16.63,0,0,1-2.44.13c-.6,0-1-.4-1-.82a1.07,1.07,0,0,1,1-.89L39,6.78a21.2,21.2,0,0,0,3.45-.47,3,3,0,0,0,1.71-1c.69-.83,1.38-1.65,2-2.52s.51-1.14,1-1.68A4.64,4.64,0,0,1,48.57,0ZM44.24,20.81A5.14,5.14,0,0,0,47.88,17,11.84,11.84,0,0,0,44.24,20.81ZM123.15,3.7a1.29,1.29,0,0,0-1.28.58c-.48.69-1,1.35-1.48,2-.22.32-.39.68-.58,1l.18.13A14.69,14.69,0,0,0,123.15,3.7ZM148.3,15.79a3.61,3.61,0,0,0-2.73,1.94A3,3,0,0,0,148.3,15.79Zm-3.08,7.3.14.22,1-.66-.14-.21Z"/><path class="cls-1" d="M173.71,9.81A1.27,1.27,0,0,1,172.54,9a.87.87,0,0,1,.1-.74A1.15,1.15,0,0,1,174,7.88a5.13,5.13,0,0,1,1,.59.37.37,0,0,1,.1.34A1.46,1.46,0,0,1,173.71,9.81Z"/><path class="cls-2" d="M44.24,20.81A11.84,11.84,0,0,1,47.88,17,5.14,5.14,0,0,1,44.24,20.81Z"/><path class="cls-2" d="M123.15,3.7A14.69,14.69,0,0,1,120,7.46l-.18-.13c.19-.34.36-.7.58-1,.48-.68,1-1.34,1.48-2A1.29,1.29,0,0,1,123.15,3.7Z"/><path class="cls-2" d="M148.3,15.79a3,3,0,0,1-2.73,1.94A3.61,3.61,0,0,1,148.3,15.79Z"/><path class="cls-2" d="M145.22,23.09l1-.65.14.21-1,.66Z"/></g></g></svg>